<svg xmlns="http://www.w3.org/2000/svg" width="256" height="256" viewBox="0 -1.5 20 20" fill="#000000" xmlns:v="https://vecta.io/nano"><path d="M13.029 11.247c-.762 0-1.401-.626-1.401-1.398s.639-1.419 1.401-1.419 1.378.646 1.378 1.419-.616 1.398-1.378 1.398m.194 2.582c-.673.682-1.728 1.013-3.224 1.013s-2.551-.332-3.223-1.013c-.146-.148-.146-.387 0-.537a.37.37 0 0 1 .528 0c.525.532 1.406.792 2.695.792s2.17-.26 2.696-.792a.37.37 0 0 1 .528 0c.146.149.146.388 0 .537M5.592 9.85c0-.772.638-1.419 1.399-1.419s1.378.647 1.378 1.419-.617 1.398-1.378 1.398-1.399-.626-1.399-1.398M20 8.313c0-1.267-1.016-2.297-2.265-2.297-.576 0-1.119.218-1.535.609-1.495-.987-3.497-1.625-5.714-1.712l1.223-3.786 3.212.767c.001 1.043.837 1.889 1.865 1.889s1.865-.849 1.865-1.891S17.814 0 16.786 0c-.77 0-1.431.475-1.716 1.151L11.212.229l-1.51 4.675c-2.301.044-4.386.678-5.937 1.689a2.24 2.24 0 0 0-1.501-.577C1.016 6.016 0 7.047 0 8.313c0 .804.414 1.542 1.076 1.955C.473 13.881 4.67 17 9.958 17c5.266 0 9.449-3.091 8.891-6.686C19.557 9.912 20 9.157 20 8.313" fill="#fff" fill-rule="evenodd"/></svg>